<?xml version="1.0" standalone="no"?>
<!DOCTYPE svg PUBLIC "-//W3C//DTD SVG 20010904//EN"
 "http://www.w3.org/TR/2001/REC-SVG-20010904/DTD/svg10.dtd">
<svg version="1.0" xmlns="http://www.w3.org/2000/svg"
 width="250.000000pt" height="250.000000pt" viewBox="0 0 250.000000 250.000000"
 preserveAspectRatio="xMidYMid meet">

<g transform="translate(0.000000,250.000000) scale(0.100000,-0.100000)"
fill="#000000" stroke="none">
<path d="M0 1250 l0 -1250 1250 0 1250 0 0 1250 0 1250 -1250 0 -1250 0 0
-1250z m532 353 l3 -256 95 256 95 257 126 0 126 0 7 -47 c4 -27 13 -95 21
-153 8 -58 39 -287 70 -509 30 -222 55 -414 55 -427 0 -23 -4 -24 -60 -24 -39
0 -62 4 -65 13 -3 6 -35 237 -73 512 l-68 500 -24 0 c-26 0 -38 -30 -270 -657
l-21 -58 -75 0 -74 0 0 425 0 425 65 0 65 0 2 -257z m988 192 l0 -65 -121 0
-122 0 6 -67 c4 -38 12 -128 18 -202 l12 -135 206 -224 206 -224 3 78 c2 44 0
175 -3 292 l-7 212 -99 0 -99 0 0 65 0 65 164 0 164 0 6 -317 c3 -175 7 -374
9 -443 l2 -125 -76 -3 -76 -3 -219 238 c-120 131 -238 259 -262 284 l-43 47
-24 258 c-14 143 -26 276 -29 297 l-4 37 194 0 194 0 0 -65z m690 -1010 l0
-85 -85 0 -85 0 0 85 0 85 85 0 85 0 0 -85z"/>
</g>
</svg>
